<?xml version="1.0" standalone="no"?><!DOCTYPE svg PUBLIC "-//W3C//DTD SVG 1.1//EN" "http://www.w3.org/Graphics/SVG/1.1/DTD/svg11.dtd"><svg t="1687364294441" class="icon" viewBox="0 0 1024 1024" version="1.1" xmlns="http://www.w3.org/2000/svg" p-id="2420" xmlns:xlink="http://www.w3.org/1999/xlink" width="200" height="200"><path d="M846.72 53.76h-2.4a8.96 8.96 0 0 0-5.76 2.56 8.64 8.64 0 0 0-2.72 6.56V192a9.12 9.12 0 0 0 9.12 9.12h65.76a20 20 0 0 0 20-20V140a86.4 86.4 0 0 0-84-86.24zM912 180.96a1.92 1.92 0 0 1-1.76 1.76h-56.32v-110.4A68.64 68.64 0 0 1 912 140zM689.28 921.92a4.48 4.48 0 0 1 0 1.28v-1.28z" p-id="2421"></path><path d="M846.72 53.76H253.44a94.56 94.56 0 0 0-94.4 94.24v673.92H105.28a8.96 8.96 0 0 0-9.12 9.12v52.64a85.28 85.28 0 0 0 69.6 84 70.72 70.72 0 0 0 16 1.76h588.32A88.8 88.8 0 0 0 853.92 880V62.72a8.96 8.96 0 0 0-7.2-8.96zM182.08 951.2a52.32 52.32 0 0 1-12.32-1.44 67.2 67.2 0 0 1-55.36-66.24V840h565.44v51.52a56.48 56.48 0 0 0 1.44 8.96v1.92a31.04 31.04 0 0 0 1.28 4.64 3.36 3.36 0 0 0 0 1.28l0.96 3.2v0.96c1.28 2.88 2.56 5.6 3.84 8.64s0 0 0 0.96a17.6 17.6 0 0 0 2.72 4.32l3.04 4.96a61.92 61.92 0 0 0 4.32 5.6l3.2 3.52 1.28 1.28a73.92 73.92 0 0 0 7.84 7.2zM835.84 880a70.56 70.56 0 0 1-70.4 70.72 64 64 0 0 1-18.56-2.72 11.04 11.04 0 0 0-2.56-1.28 68.8 68.8 0 0 1-26.08-16l-4.48-4.96-2.4-3.04-3.2-4.96a32.96 32.96 0 0 1-2.72-4.64 35.36 35.36 0 0 1-3.52-8 16 16 0 0 0-1.12-2.72c0-1.76-0.96-3.68-1.44-6.4a53.6 53.6 0 0 1-0.96-6.88v-58.24a8.96 8.96 0 0 0-9.12-9.12h-512V147.84a76.32 76.32 0 0 1 76.32-76.16h582.4z" p-id="2422"></path><path d="M769.6 969.12z" p-id="2423"></path><path d="M760.48 400H257.28a9.12 9.12 0 0 1-9.12-9.12v-192a9.12 9.12 0 0 1 9.12-9.12h503.2a9.12 9.12 0 0 1 9.12 9.12v192a9.12 9.12 0 0 1-9.12 9.12z m-494.08-17.92H752V208H266.4zM755.84 588.32H261.76a9.12 9.12 0 1 1 0-18.08h494.08a9.12 9.12 0 0 1 0 18.08zM755.84 717.6H261.76a9.12 9.12 0 1 1 0-18.08h494.08a9.12 9.12 0 0 1 0 18.08zM684.96 912a49.92 49.92 0 0 0 3.84 8.64c-0.8-2.4-2.56-5.12-3.84-8.64z m0 0a49.92 49.92 0 0 0 3.84 8.64c-0.8-2.4-2.56-5.12-3.84-8.64z m0 0a49.92 49.92 0 0 0 3.84 8.64c-0.8-2.4-2.56-5.12-3.84-8.64z m0 0a49.92 49.92 0 0 0 3.84 8.64c-0.8-2.4-2.56-5.12-3.84-8.64z" p-id="2424"></path></svg>