<?xml version="1.0" standalone="no"?><!DOCTYPE svg PUBLIC "-//W3C//DTD SVG 1.1//EN" "http://www.w3.org/Graphics/SVG/1.1/DTD/svg11.dtd"><svg t="1687415512141" class="icon" viewBox="0 0 1024 1024" version="1.1" xmlns="http://www.w3.org/2000/svg" p-id="5713" xmlns:xlink="http://www.w3.org/1999/xlink" width="200" height="200"><path d="M724.3 742.6c-6.54-14.88-13.08-29.67-19.61-44.55q-23.54-53.4-47.06-106.9l-56.72-128.82Q576.33 406.68 551.84 351c-8-18.1-15.39-36.6-23.94-54.3a7.66 7.66 0 0 1-0.3-0.8c-3-6.94-12.27-12.88-19.21-14.79a32 32 0 0 0-5.43-0.94 27.36 27.36 0 0 0-12.27 0.94c-7.44 2.42-16 7.34-19.21 14.79-6.43 14.78-12.87 29.66-19.3 44.44q-23.08 53.4-46.26 106.8t-46.24 106.79a29.67 29.67 0 0 0-3.44 7.94q-3.12 7.2-6.23 14.4-24.13 55.66-48.17 111.22l-23.53 54.3c-0.1 0.3-0.2 0.5-0.3 0.81-3.63 8.24-5.74 15.79-3.22 24.84 2 7.44 7.84 15.59 14.78 19.2 7.44 3.93 16.49 5.94 24.84 3.22 7.44-2.41 16-7.34 19.21-14.78 6.43-14.78 12.87-29.67 19.3-44.45q23.08-53.4 46.26-106.79 4.65-10.77 9.32-21.52 27.76 0 55.54 0.1 60.94 0 121.78 0.1h6.86l2.7 6.13Q620 664.32 644.45 720c7.95 18.1 15.39 36.61 23.93 54.31a5.45 5.45 0 0 1 0.3 0.8c3 6.94 12.27 12.87 19.21 14.78 7.75 2.12 18 1.21 24.84-3.22s12.87-11.06 14.78-19.2c2.02-8.98 0.41-16.47-3.21-24.87zM537.05 538.06q-50.38 0-100.69-0.09 9.38-21.63 18.73-43.25 22.4-51.64 44.69-103.19 19.44 44.14 38.88 88.3l25.66 58.29z" p-id="5714"></path><path d="M865.8 353v455.48c0 19.94 0.15 39.89 0 59.84a72.51 72.51 0 0 1-0.57 8.71l1.08-8a65.3 65.3 0 0 1-4.31 15.45l3-7.19a63.7 63.7 0 0 1-5 9.24c-0.48 0.72-1 1.42-1.48 2.15-2.28 3.43 2.23-3.12 2.32-3s-3.73 4.12-3.94 4.33c-1.22 1.22-2.63 2.28-3.83 3.52-2.23 2.3 5.73-4 3-2.29-0.73 0.47-1.42 1-2.14 1.5a63.75 63.75 0 0 1-9.77 5.33l7.18-3a64.17 64.17 0 0 1-15.34 4.27l8-1.07c-8.08 1-16.46 0.56-24.6 0.56H249.88c-26.34 0-52.67 0.11-79 0a73.79 73.79 0 0 1-8.92-0.56l8 1.07a64.29 64.29 0 0 1-15.44-4.29l7.18 3a64.51 64.51 0 0 1-9.23-5c-0.73-0.48-1.43-1-2.15-1.48-3.44-2.29 3.12 2.22 3 2.32s-4.13-3.73-4.33-3.94c-1.23-1.22-2.29-2.64-3.52-3.84-2.31-2.23 4 5.73 2.28 3-0.46-0.73-1-1.41-1.5-2.13a63.85 63.85 0 0 1-5.33-9.78l3 7.19a65.3 65.3 0 0 1-4.28-15.39l1.08 8c-1-8.09-0.57-16.47-0.57-24.6V282.91c0-26.33-0.1-52.67 0-79a71.94 71.94 0 0 1 0.57-8.92l-1.08 8a65.3 65.3 0 0 1 4.29-15.45l-3 7.19a63.7 63.7 0 0 1 5-9.24c0.48-0.73 1-1.42 1.48-2.15 2.28-3.43-2.23 3.12-2.32 3s3.73-4.12 3.94-4.33c1.22-1.22 2.63-2.28 3.83-3.52 2.23-2.3-5.73 4-3 2.29 0.73-0.47 1.42-1 2.14-1.5a62.91 62.91 0 0 1 9.77-5.33l-7.18 3a64.17 64.17 0 0 1 15.41-4.27l-8 1.07c6-0.76 12.1-0.56 18.15-0.56h371.59c17.93 0 35.91 0.36 53.84 0h0.77c15.74 0 30.81-13.84 30.08-30.09S623.22 113 606.35 113H172.74c-9.84 0-19.9 1-29.27 4.06-27.84 9.15-48.26 29.74-58.54 56.94-4.77 12.61-4.93 26-4.93 39.2v653.28c0 33.73 17.8 67.43 48.94 82.46A96.42 96.42 0 0 0 171.28 959h661.6c32.82 0 63.52-15.75 80.54-44.32C923.69 897.43 926 878.48 926 859V353c0-15.73-13.83-30.81-30.08-30.08S865.8 336.16 865.8 353z" p-id="5715"></path><path d="M944 195.38c-0.73-16.3-13.22-30.08-30.09-30.08h-70.2V95.11c0-15.74-13.83-30.81-30.08-30.08s-30.08 13.21-30.08 30.08v70.19h-70.19c-15.74 0-30.81 13.84-30.09 30.08s13.22 30.08 30.09 30.08h70.19v70.2c0 15.73 13.84 30.81 30.08 30.08s30.08-13.22 30.08-30.08v-70.2h70.19c15.74 0 30.81-13.83 30.1-30.08z" p-id="5716"></path></svg>